<?xml version="1.0" encoding="utf-8"?>
<!-- Generator: Adobe Illustrator 21.0.0, SVG Export Plug-In . SVG Version: 6.00 Build 0)  -->
<svg version="1.1" id="Layer_1" xmlns="http://www.w3.org/2000/svg" xmlns:xlink="http://www.w3.org/1999/xlink" x="0px" y="0px"
	 viewBox="0 0 1080 1080" style="enable-background:new 0 0 1080 1080;" xml:space="preserve">
<style type="text/css">
	.st0{fill:#FFCC4D;}
	.st1{fill:#664500;}
	.st2{fill:#FFFFFF;}
	.st3{fill:#7D8B8C;}
	.st4{fill:#536060;}
	.st5{fill:#394444;}
	.st6{fill:#2B3535;}
	.st7{fill:#DB3B5E;}
	.st8{fill:#C42C54;}
</style>
<g transform="matrix(1.25 0 0 -1.25 0 45)">
	<g>
		<g>
			<path class="st0" d="M680.8-434.2C680.8-571.6,569.4-683,432-683c-137.4,0-248.8,111.4-248.8,248.8
				c0,137.4,111.4,248.8,248.8,248.8C569.4-185.4,680.8-296.8,680.8-434.2"/>
			<g>
				<path class="st1" d="M404.4-434.2c-5.8,0-11.2,3.7-13.1,9.5c-2.8,8.3-14.1,32-28.4,32c-14.7,0-26.1-25.3-28.4-32
					c-2.4-7.2-10.2-11.2-17.5-8.7c-7.2,2.4-11.2,10.2-8.8,17.5c1.7,5.2,18,50.9,54.6,50.9s52.8-45.7,54.6-50.9
					c2.4-7.2-1.5-15.1-8.8-17.5C407.3-433.9,405.8-434.2,404.4-434.2"/>
				<path class="st1" d="M542.6-434.2c-5.8,0-11.2,3.7-13.1,9.5c-2.8,8.3-14.1,32-28.4,32c-14.7,0-26.1-25.3-28.4-32
					c-2.4-7.2-10.2-11.2-17.5-8.7c-7.2,2.4-11.2,10.2-8.7,17.5c1.7,5.2,18,50.9,54.6,50.9c36.6,0,52.8-45.7,54.6-50.9
					c2.4-7.2-1.5-15.1-8.7-17.5C545.5-433.9,544-434.2,542.6-434.2"/>
				<path class="st1" d="M432-489.5c-50.1,0-83.3,5.8-124.4,13.8c-9.4,1.8-27.6,0-27.6-27.6c0-55.3,63.5-124.4,152.1-124.4
					c88.5,0,152.1,69.1,152.1,124.4c0,27.6-18.3,29.5-27.6,27.6C515.3-483.6,482.1-489.5,432-489.5"/>
			</g>
			<path class="st2" d="M307.6-503.3c0,0,41.5-13.8,124.4-13.8s124.4,13.8,124.4,13.8s-18.6-93.3-124.4-93.3
				S307.6-503.3,307.6-503.3"/>
			<path class="st1" d="M432-566.8c-49.7,0-86.7,5.1-109.7,10.3l-11.4,25.9c11.4-4.3,53.8-12.4,121.1-12.4
				c68.5,0,111.1,8.5,122.5,13l-9.7-25.5C522.3-560.8,483.8-566.8,432-566.8"/>
		</g>
	</g>
</g>
<path class="st3" d="M1001.3,513.1c-24.6,0-43.8-14.8-43.8-33.7c0-175.1-185.9-319.2-415.7-319.2c-228,0-415.7,142.8-415.7,319.2
	c0,18.9-19.3,33.7-43.8,33.7s-43.8-14.8-43.8-33.7c0-212.8,226.3-386.5,503.4-386.5s503.4,173.7,503.4,386.5
	C1045.1,498.3,1025.8,513.1,1001.3,513.1z"/>
<path class="st4" d="M541.8,158.9c-254.3,0-466.5,146.8-498.1,335.3c7,10.8,22.8,18.9,40.3,18.9c24.6,0,43.8-14.8,43.8-33.7
	c0-175.1,185.9-319.2,415.7-319.2c228,0,415.7,142.8,415.7,319.2c0,18.9,19.3,33.7,43.8,33.7c17.5,0,31.6-8.1,40.3-18.9
	C1008.3,304.4,796.1,158.9,541.8,158.9z"/>
<path class="st5" d="M911.8,687c0,32,36.8,58.8,80.7,58.8h1.8c43.8,0,80.7-26.8,80.7-58.8V557.9c0-32-36.8-58.8-80.7-58.8h-1.8
	c-43.8,0-80.7,26.8-80.7,58.8V687z"/>
<path class="st6" d="M911.8,557.9V687c0,32,36.8,58.8,80.7,58.8h1.8c43.8,0,80.7-26.8,80.7-58.8V557.9"/>
<path class="st7" d="M811.9,710c0,29.4,33.3,53.7,73.7,53.7h68.4c40.3,0,73.7-24.3,73.7-53.7V502.9c0-29.4-33.3-53.7-73.7-53.7
	h-68.4c-40.3,0-73.7,24.3-73.7,53.7V710z"/>
<path class="st8" d="M953.9,449.2h-68.4c-40.3,0-73.7,24.3-73.7,53.7V710c0,29.4,33.3,53.7,73.7,53.7h68.4
	c40.3,0,73.7-24.3,73.7-53.7"/>
<path class="st5" d="M953.9,449.2h-68.4c-40.3,0-73.7,24.3-73.7,53.7V710c0,29.4,33.3,53.7,73.7,53.7h68.4"/>
<path class="st6" d="M953.9,449.2h-87.7c-40.3,0-54.4,24.3-54.4,53.7V710c0,29.4,33.3,53.7,73.7,53.7"/>
<path class="st5" d="M168.2,687c0,32-36.8,58.8-80.7,58.8h-1.8C41.9,745.8,5,718.9,5,687V557.9c0-32,36.8-58.8,80.7-58.8h1.8
	c43.8,0,80.7,26.8,80.7,58.8C168.2,557.9,168.2,687,168.2,687z"/>
<path class="st6" d="M168.2,557.9V687c0,32-36.8,58.8-80.7,58.8h-1.8C41.9,745.8,5,718.9,5,687V557.9"/>
<path class="st7" d="M268.1,710c0,29.4-33.3,53.7-73.7,53.7h-68.4c-40.3,0-73.7-24.3-73.7-53.7V502.9c0-29.4,33.3-53.7,73.7-53.7
	h68.4c40.3,0,73.7,24.3,73.7,53.7V710z"/>
<path class="st8" d="M126.1,449.2h68.4c40.3,0,73.7,24.3,73.7,53.7V710c0,29.4-33.3,53.7-73.7,53.7h-68.4
	c-40.3,0-73.7-24.3-73.7-53.7"/>
<path class="st5" d="M126.1,449.2h68.4c40.3,0,73.7,24.3,73.7,53.7V710c0,29.4-33.3,53.7-73.7,53.7h-68.4"/>
<path class="st6" d="M126.1,449.2h87.7c40.3,0,54.4,24.3,54.4,53.7V710c0,29.4-33.3,53.7-73.7,53.7"/>
</svg>
