<?xml version="1.0" encoding="utf-8"?>
<!-- Generator: Adobe Illustrator 21.0.0, SVG Export Plug-In . SVG Version: 6.00 Build 0)  -->
<svg version="1.1" xmlns="http://www.w3.org/2000/svg" xmlns:xlink="http://www.w3.org/1999/xlink" x="0px" y="0px"
	 viewBox="0 0 1080 1080" style="enable-background:new 0 0 1080 1080;" xml:space="preserve">
<style type="text/css">
	.st0{display:none;}
	.st1{display:inline;}
	.st2{fill:#FFCC4D;}
	.st3{fill:#664500;}
	.st4{fill:#FFFFFF;}
	.st5{fill:#F4900C;}
	.st6{fill:#7D8B8C;}
	.st7{fill:#536060;}
	.st8{fill:#394444;}
	.st9{fill:#2B3535;}
	.st10{fill:#DB3B5E;}
	.st11{fill:#C42C54;}
</style>
<g id="Layer_2" class="st0">
	<g transform="matrix(1.25 0 0 -1.25 0 45)" class="st1">
		<g>
			<g>
				<path class="st2" d="M684.1-469.4c0-139.2-112.9-252.1-252.1-252.1c-139.2,0-252.1,112.9-252.1,252.1
					c0,139.2,112.9,252.1,252.1,252.1C571.2-217.4,684.1-330.2,684.1-469.4"/>
				<g>
					<path class="st3" d="M413.3-365c-2.9,1.3-6.3,0.4-8.3-2.1c-0.1-0.2-13.7-16.8-46.7-25.8c-10.9-3-21.4-4.5-31.4-4.5
						c-13.9,0-21.8,3-21.9,3c-2.9,1.2-6.3,0.2-8.2-2.4c-1.9-2.6-1.8-6.1,0.2-8.6c1-1.2,24.9-30.1,57.8-30.1c4.9,0,9.8,0.7,14.6,2
						c40,10.9,47.8,58.9,48.1,61C417.9-369.3,416.2-366.3,413.3-365"/>
					<path class="st3" d="M567-395.2c-1.9,2.5-5.3,3.4-8.3,2.2c-0.1,0-8.9-3.6-24.3-3.6c-9.3,0-19,1.3-29,3.7
						c-33.2,8.2-47.2,24.5-47.3,24.6c-2,2.5-5.4,3.3-8.3,1.9c-2.9-1.3-4.5-4.5-4-7.6c0.4-2,9.4-49.9,49.6-59.8
						c4.3-1.1,8.8-1.6,13.2-1.6c33.6,0,57.4,30.2,58.4,31.5C568.9-401.2,568.9-397.7,567-395.2"/>
					<path class="st3" d="M319.9-357.4c-6.3,0-12,4.2-13.6,10.6c-1.9,7.5,2.7,15.1,10.1,17c0.5,0.1,50.3,13.5,74.9,62.7
						c3.5,6.9,11.8,9.7,18.8,6.3c6.9-3.5,9.7-11.9,6.3-18.8c-30.5-61.1-90.6-76.7-93.2-77.3C322.2-357.3,321.1-357.4,319.9-357.4"/>
					<path class="st3" d="M544-357.4c-1.1,0-2.3,0.1-3.4,0.4c-2.5,0.6-62.6,16.3-93.2,77.3c-3.5,6.9-0.6,15.3,6.3,18.8
						c6.9,3.5,15.3,0.6,18.8-6.3c24.6-49.3,74.4-62.6,74.9-62.7c7.5-1.9,12-9.5,10.1-17C556-353.2,550.3-357.4,544-357.4"/>
					<path class="st3" d="M432-622.9c-50.7,0-84.4-5.9-126-14c-9.5-1.8-28,0-28,28c0,56,64.3,126,154,126c89.7,0,154-70,154-126
						c0-28-18.5-29.9-28-28C516.4-628.8,482.7-622.9,432-622.9"/>
				</g>
				<path class="st4" d="M320-567.4c0,0,42,14,112,14c70,0,112-14,112-14s-28,56-112,56C348-511.4,320-567.4,320-567.4"/>
			</g>
		</g>
	</g>
</g>
<g id="Layer_3">
	<g transform="matrix(1.25 0 0 -1.25 0 45)">
		<g>
			<g>
				<path class="st2" d="M184.9-454.7c0-136.5,110.6-247.1,247.1-247.1c136.5,0,247.1,110.6,247.1,247.1
					c0,136.4-110.6,247.1-247.1,247.1C295.6-207.6,184.9-318.2,184.9-454.7"/>
				<g>
					<path class="st3" d="M391.9-369.8c0-21.3-13.8-38.6-30.9-38.6c-17,0-30.9,17.3-30.9,38.6c0,21.3,13.8,38.6,30.9,38.6
						C378.1-331.2,391.9-348.5,391.9-369.8"/>
					<path class="st3" d="M555.5-385.2c0-21.3-13.8-38.6-30.9-38.6c-17,0-30.9,17.3-30.9,38.6c0,21.3,13.8,38.6,30.9,38.6
						C541.7-346.6,555.5-363.9,555.5-385.2"/>
					<path class="st3" d="M303.4-305.4c-2.5,1.3-4.7,3.4-6,6.1c-3.3,6.6-0.6,14.3,6.1,17.2c65.9,28.3,118.9,0.7,121.1-0.5
						c6.7-3.6,9.4-11.6,6-17.8c-3.3-6.3-11.4-8.4-18.1-4.9c-1.9,1-43.7,22.1-96.9-0.7C311.5-307.7,307.1-307.4,303.4-305.4"/>
					<path class="st3" d="M381.7-509.9c-2.1,2-3.6,4.5-4.3,7.5c-1.5,7.2,3.1,14,10.3,15c70.9,10.5,115.1-29.8,116.9-31.5
						c5.6-5.2,6.1-13.5,1.3-18.8c-4.8-5.2-13.2-5.2-18.7-0.1c-1.6,1.4-36.6,32.6-93.9,24.1C389-514.2,384.7-512.7,381.7-509.9"/>
					<path class="st3" d="M469.5-363.3c-2.4,1.5-4.4,3.8-5.6,6.5c-2.9,6.8,0.4,14.3,7.2,16.7c67.7,23.7,118.7-7.4,120.8-8.8
						c6.4-4,8.6-12.2,4.8-18.2c-3.7-6-12-7.6-18.4-3.7c-1.9,1.1-42.1,25-96.8,5.9C477.5-366.2,473.1-365.5,469.5-363.3"/>
				</g>
				<path class="st5" d="M420.8-750.1c0,0,19.5,6.3,22.1,20.9c2.7,15-9.6,18-9.6,18s16.1,3.2,18.1,21.2c1.9,17-13.3,21-13.3,21
					s15,6.2,15.7,23.8c0.6,14.8-15.4,22.1-15.4,22.1s77.8,18.8,85.8,20.7c8,1.9,20.4,9.5,16.5,26.2c-3.8,16.7-18.6,17.3-26.2,15.5
					c-7.6-1.8-104.1-24.2-137.4-32c-3.6-0.8-20.2-4.7-22.2-5.2c-8.3-2-12.1,1.7-6.3,7.9c7.9,8.3,12.9,17.4,14.6,32.6
					c1.8,16-3.6,35.7-6.7,43.4c-5.8,14.2-15.5,25.5-26.8,29.3c-17.6,6-30.1-5-23.8-24.1c9.3-28.6,3.2-52.1-12.9-66.3
					c-37.8-33.3-55.4-57.1-43.7-107.7c12.8-55.2,67.6-90.7,122.8-78C375-760,420.8-750.1,420.8-750.1"/>
			</g>
		</g>
	</g>
</g>
<g id="Layer_1">
	<g transform="matrix(1.25 0 0 -1.25 0 45)">
		<g>
			<g>
				<path class="st2" d="M680.8-434.2"/>
				<path class="st2" d="M183.2-434.2"/>
				<path class="st2" d="M680.8-434.2"/>
				<g>
					<path class="st3" d="M584.1-503.3"/>
				</g>
			</g>
		</g>
	</g>
	<path class="st6" d="M1001.3,513.1c-24.6,0-43.8-14.8-43.8-33.7c0-175.1-185.9-319.2-415.7-319.2c-228,0-415.7,142.8-415.7,319.2
		c0,18.9-19.3,33.7-43.8,33.7s-43.8-14.8-43.8-33.7c0-212.8,226.3-386.5,503.4-386.5s503.4,173.7,503.4,386.5
		C1045.1,498.3,1025.8,513.1,1001.3,513.1z"/>
	<path class="st7" d="M541.8,158.9c-254.3,0-466.5,146.8-498.1,335.3c7,10.8,22.8,18.9,40.3,18.9c24.6,0,43.8-14.8,43.8-33.7
		c0-175.1,185.9-319.2,415.7-319.2c228,0,415.7,142.8,415.7,319.2c0,18.9,19.3,33.7,43.8,33.7c17.5,0,31.6-8.1,40.3-18.9
		C1008.3,304.4,796.1,158.9,541.8,158.9z"/>
	<path class="st8" d="M911.8,687c0,32,36.8,58.8,80.7,58.8h1.8c43.8,0,80.7-26.8,80.7-58.8V557.9c0-32-36.8-58.8-80.7-58.8h-1.8
		c-43.8,0-80.7,26.8-80.7,58.8V687z"/>
	<path class="st9" d="M911.8,557.9V687c0,32,36.8,58.8,80.7,58.8h1.8c43.8,0,80.7-26.8,80.7-58.8V557.9"/>
	<path class="st10" d="M811.9,710c0,29.4,33.3,53.7,73.7,53.7h68.4c40.3,0,73.7-24.3,73.7-53.7V502.9c0-29.4-33.3-53.7-73.7-53.7
		h-68.4c-40.3,0-73.7,24.3-73.7,53.7V710z"/>
	<path class="st11" d="M953.9,449.2h-68.4c-40.3,0-73.7,24.3-73.7,53.7V710c0,29.4,33.3,53.7,73.7,53.7h68.4
		c40.3,0,73.7-24.3,73.7-53.7"/>
	<path class="st8" d="M953.9,449.2h-68.4c-40.3,0-73.7,24.3-73.7,53.7V710c0,29.4,33.3,53.7,73.7,53.7h68.4"/>
	<path class="st9" d="M953.9,449.2h-87.7c-40.3,0-54.4,24.3-54.4,53.7V710c0,29.4,33.3,53.7,73.7,53.7"/>
	<path class="st8" d="M168.2,687c0,32-36.8,58.8-80.7,58.8h-1.8C41.9,745.8,5,718.9,5,687V557.9c0-32,36.8-58.8,80.7-58.8h1.8
		c43.8,0,80.7,26.8,80.7,58.8C168.2,557.9,168.2,687,168.2,687z"/>
	<path class="st9" d="M168.2,557.9V687c0,32-36.8,58.8-80.7,58.8h-1.8C41.9,745.8,5,718.9,5,687V557.9"/>
	<path class="st10" d="M268.1,710c0,29.4-33.3,53.7-73.7,53.7h-68.4c-40.3,0-73.7-24.3-73.7-53.7V502.9c0-29.4,33.3-53.7,73.7-53.7
		h68.4c40.3,0,73.7,24.3,73.7,53.7V710z"/>
	<path class="st11" d="M126.1,449.2h68.4c40.3,0,73.7,24.3,73.7,53.7V710c0,29.4-33.3,53.7-73.7,53.7h-68.4
		c-40.3,0-73.7-24.3-73.7-53.7"/>
	<path class="st8" d="M126.1,449.2h68.4c40.3,0,73.7,24.3,73.7,53.7V710c0,29.4-33.3,53.7-73.7,53.7h-68.4"/>
	<path class="st9" d="M126.1,449.2h87.7c40.3,0,54.4,24.3,54.4,53.7V710c0,29.4-33.3,53.7-73.7,53.7"/>
</g>
</svg>
